<?xml version="1.0" encoding="utf-8"?>
<!-- Generator: Adobe Illustrator 19.2.0, SVG Export Plug-In . SVG Version: 6.00 Build 0)  -->
<svg xmlns="http://www.w3.org/2000/svg" xmlns:xlink="http://www.w3.org/1999/xlink" version="1.1" id="rssfeed" x="0px" y="0px" viewBox="0 0 224.0005 192" enable-background="new 0 0 224.0005 192" xml:space="preserve" width="512" height="512">
<g>
	<polygon fill="#5CB0FF" points="16.3716,72 135.6294,72 76.0005,28.9336  "/>
	<path fill="#D0E8FF" d="M73.6587,143.2422L8.0005,95.8223V184h136V95.8223l-65.6582,47.4199   C76.9439,144.2539,75.0572,144.2539,73.6587,143.2422z M66.0005,176h-44c-2.209,0-4-1.791-4-4s1.791-4,4-4h44c2.209,0,4,1.791,4,4   S68.2095,176,66.0005,176z M66.0005,164h-44c-2.209,0-4-1.791-4-4s1.791-4,4-4h44c2.209,0,4,1.791,4,4S68.2095,164,66.0005,164z"/>
	<path fill="#1C71DA" d="M149.8208,84.4395c-1.3359-0.6895-2.9434-0.5645-4.1621,0.3184l-69.6582,50.3086L6.3423,84.7578   C5.1197,83.875,3.5122,83.75,2.1802,84.4395C0.8423,85.123,0.0005,86.498,0.0005,88v100c0,2.209,1.791,4,4,4h144   c2.209,0,4-1.791,4-4V88C152.0005,86.498,151.1587,85.123,149.8208,84.4395z M144.0005,184h-136V95.8223l65.6582,47.4199   c1.3984,1.0117,3.2852,1.0117,4.6836,0l65.6582-47.4199V184z"/>
	<path fill="#1C71DA" d="M150.3423,72.7578l-72-52c-1.3984-1.0117-3.2852-1.0117-4.6836,0l-72,52   c-1.4062,1.0156-1.998,2.8223-1.4648,4.4727C0.729,78.8809,2.2662,80,4.0005,80h144c1.7344,0,3.2715-1.1191,3.8066-2.7695   C152.3404,75.5801,151.7486,73.7734,150.3423,72.7578z M16.3716,72l59.6289-43.0664L135.6294,72H16.3716z"/>
	<path fill="#1C71DA" d="M66.0005,156h-44c-2.209,0-4,1.791-4,4s1.791,4,4,4h44c2.209,0,4-1.791,4-4S68.2095,156,66.0005,156z"/>
	<path fill="#1C71DA" d="M66.0005,168h-44c-2.209,0-4,1.791-4,4s1.791,4,4,4h44c2.209,0,4-1.791,4-4S68.2095,168,66.0005,168z"/>
	<path fill="#1C71DA" d="M136.0005,44c-2.209,0-4,1.791-4,4s1.791,4,4,4c17.6445,0,32,14.3555,32,32c0,2.209,1.791,4,4,4   s4-1.791,4-4C176.0005,61.9434,158.0572,44,136.0005,44z"/>
	<path fill="#1C71DA" d="M132.0005,24c-2.209,0-4,1.791-4,4s1.791,4,4,4c33.084,0,60,26.916,60,60c0,2.209,1.791,4,4,4s4-1.791,4-4   C200.0005,54.5039,169.4966,24,132.0005,24z"/>
	<path fill="#1C71DA" d="M128.0005,0c-2.209,0-4,1.791-4,4s1.791,4,4,4c48.5234,0,88,39.4766,88,88c0,2.209,1.791,4,4,4s4-1.791,4-4   C224.0005,43.0664,180.9341,0,128.0005,0z"/>
</g>
<path fill="#FF5D5D" d="M16.253,23.8237c-1.0239,0-2.0474-0.3906-2.8286-1.1714c-1.562-1.5625-1.562-4.0947,0-5.6572L27.5664,2.853  c1.5625-1.5615,4.0947-1.5615,5.6572,0c1.562,1.5625,1.562,4.0947,0,5.6572L19.0816,22.6523  C18.3003,23.4331,17.2769,23.8237,16.253,23.8237z"/>
<path fill="#FF5D5D" d="M30.3951,23.8223c-1.0239,0-2.0474-0.3906-2.8286-1.1714L13.4244,8.5083  c-1.562-1.5625-1.562-4.0952,0-5.6572c1.5635-1.5615,4.0957-1.561,5.6572,0l14.1421,14.1426c1.562,1.5625,1.562,4.0952,0,5.6572  C32.4424,23.4316,31.4185,23.8223,30.3951,23.8223z"/>
<path fill="#00D40B" d="M78.253,119.8237c-7.7197,0-14-6.2803-14-14s6.2803-14,14-14s14,6.2803,14,14  S85.9727,119.8237,78.253,119.8237z M78.253,99.8237c-3.3086,0-6,2.6914-6,6s2.6914,6,6,6s6-2.6914,6-6  S81.5616,99.8237,78.253,99.8237z"/>
<path fill="#FFC504" d="M199.5665,170.4492c-1.0239,0-2.0474-0.3906-2.8286-1.1714l-11.3135-11.3135  c-1.562-1.5625-1.562-4.0947,0-5.6572l11.3135-11.3135c1.5625-1.5615,4.0952-1.5615,5.6567,0l11.314,11.3135  c0.7505,0.7505,1.1719,1.7676,1.1719,2.8286s-0.4214,2.0781-1.1719,2.8286l-11.314,11.3135  C201.6138,170.0586,200.5899,170.4492,199.5665,170.4492z M193.9097,155.1357l5.6567,5.6567l5.6572-5.6567l-5.6572-5.6567  L193.9097,155.1357z"/>
</svg>
