<svg id="Capa_1" enable-background="new 0 0 512 512" height="512" viewBox="0 0 512 512" width="512" xmlns="http://www.w3.org/2000/svg"><g><g><path d="m46.27 101.788-5.009 11.84v260.828c0 17.212 13.953 31.165 31.165 31.165h350.631c17.212 0 31.165-13.953 31.165-31.165v-260.829l-5.009-11.84h-402.943z" fill="#d8eafb"/></g><g><path d="m403.191 101.788v221.637c0 17.212-13.953 31.165-31.165 31.165h-330.765v19.866c0 17.212 13.953 31.165 31.165 31.165h350.631c17.212 0 31.165-13.953 31.165-31.165v-260.829l-5.009-11.84h-46.022z" fill="#b3d8fb"/></g><g><path d="m423.057 27.621h-350.631c-17.212 0-31.165 13.953-31.165 31.165v54.842h412.961v-54.842c0-17.212-13.953-31.165-31.165-31.165zm-57.214 62.262c-10.636 0-19.258-8.622-19.258-19.258s8.622-19.258 19.258-19.258 19.258 8.622 19.258 19.258c0 10.635-8.622 19.258-19.258 19.258z" fill="#1690fb"/></g><g><path d="m423.057 27.621h-19.866v86.007h51.031v-54.842c0-17.212-13.953-31.165-31.165-31.165z" fill="#0571f9"/></g><g><path d="m324.987 145.194-85.507-7.033c-8.311-.684-16.502 2.322-22.399 8.219l-202.228 202.228c-9.786 9.786-9.786 25.653 0 35.44l92.992 92.992c9.786 9.786 25.653 9.786 35.44 0l202.091-202.091c5.975-5.975 8.978-14.302 8.191-22.716l-8.122-86.808c-1.011-10.813-9.635-19.341-20.458-20.231zm-9.092 59.846c-8.02 8.02-21.023 8.02-29.043 0s-8.02-21.023 0-29.043 21.023-8.02 29.043 0c8.02 8.021 8.02 21.024 0 29.043z" fill="#dd636e"/></g><g><path d="m324.987 145.194-16.595-1.365 2.675 28.588c1.734.929 3.365 2.118 4.828 3.581 8.02 8.02 8.02 21.023 0 29.043-.525.525-1.073 1.011-1.638 1.468l3.375 36.077c.787 8.414-2.215 16.741-8.191 22.716l-202.091 202.09c-1.583 1.583-3.326 2.905-5.176 3.976l5.671 5.671c9.786 9.786 25.653 9.786 35.44 0l202.091-202.091c5.975-5.975 8.978-14.302 8.191-22.716l-8.122-86.808c-1.011-10.812-9.635-19.34-20.458-20.23z" fill="#d82e3d"/></g><g><circle cx="97.712" cy="70.624" r="13.982"/><ellipse cx="140.723" cy="70.624" rx="13.982" ry="13.982" transform="matrix(.707 -.707 .707 .707 -8.722 120.191)"/><circle cx="183.734" cy="70.624" r="13.982"/><path d="m511.979 101.953c-.691-21.584-19.622-39.216-41.218-39.216h-9.025v-3.951c0-21.362-17.317-38.679-38.679-38.679h-350.631c-21.362 0-38.679 17.317-38.679 38.679v260.302l-24.207 24.207c-6.152 6.152-9.54 14.332-9.54 23.033s3.388 16.881 9.54 23.033l92.992 92.992c6.152 6.153 14.332 9.54 23.033 9.54s16.881-3.388 23.033-9.54l69.218-69.218h39.398c3.841 0 7.278-2.759 7.741-6.572.555-4.57-2.996-8.454-7.456-8.454h-24.656l117.846-117.846c7.581-7.581 11.357-18.053 10.359-28.729l-5.163-55.179h50.84c14.508 0 28.332-4.399 39.983-12.535v190.638c0 13.062-10.589 23.651-23.651 23.651h-129.161c-3.841 0-7.278 2.759-7.741 6.572-.555 4.57 2.996 8.454 7.456 8.454h129.446c21.362 0 38.679-17.317 38.679-38.679v-204.099l38.386-38.386c7.975-7.976 12.219-18.688 11.857-30.018zm-66.35 63.26c-10.318 10.318-24.311 16.114-38.902 16.114h-52.247l-1.553-16.602c-1.354-14.465-12.845-25.828-27.323-27.018l-85.507-7.033c-10.531-.869-20.856 2.922-28.327 10.394l-22.7 22.699c-2.515 2.515-3.138 6.491-1.208 9.478 2.706 4.189 8.357 4.623 11.676 1.305l22.857-22.857c4.343-4.345 10.349-6.544 16.47-6.043l85.506 7.033c7.204.593 12.92 6.246 13.594 13.442l1.422 15.202h-11.517c-1.343-3.89-3.562-7.541-6.662-10.641-10.936-10.935-28.731-10.937-39.669 0-10.936 10.936-10.936 28.732 0 39.668 5.469 5.468 12.651 8.203 19.834 8.203 7.184 0 14.366-2.734 19.835-8.203 3.979-3.979 6.503-8.866 7.586-14h11.998l5.294 56.578c.581 6.208-1.615 12.296-6.023 16.704l-202.09 202.091c-6.852 6.852-17.962 6.852-24.815 0l-92.738-92.738c-2.862-2.862-4.816-6.566-5.275-10.587-.621-5.448 1.221-10.682 5.021-14.482l154.899-154.899c3.153-3.153 2.918-8.412-.706-11.25-3.024-2.369-7.405-1.889-10.121.827l-115.464 115.463v-182.92h367.701c3.841 0 7.278-2.759 7.741-6.572.555-4.57-2.996-8.454-7.456-8.454h-367.986v-47.329c0-13.063 10.589-23.652 23.652-23.652h350.632c13.062 0 23.651 10.589 23.651 23.651v3.951h-55.281c-3.593-11.633-14.918-19.905-27.946-18.783-13.056 1.125-23.531 11.866-24.356 24.944-.98 15.54 11.384 28.498 26.717 28.498 12.29 0 22.665-8.327 25.798-19.633h55.069v86.368zm-132.441 30.748c-.626 1.364-1.571 2.566-2.607 3.767-3.219 3.733-10.081 5.55-15.818 2.035-4.089-2.488-6.414-6.688-6.414-11.244-.021-5.742 5.033-13.006 13.024-13.017 3.334 0 6.669 1.269 9.208 3.808.369.369.704.759 1.019 1.16-2.124 1.327-3.542 3.68-3.542 6.37.001 3.315 2.15 6.124 5.13 7.121zm62.467-118.898c-2.193 3.331-6.03 5.489-10.35 5.295-6.009-.27-10.961-5.251-11.197-11.262-.263-6.69 5.102-12.216 11.735-12.216 3.854 0 7.271 1.875 9.414 4.751-2.357 1.268-3.961 3.756-3.961 6.62 0 3.021 1.787 5.619 4.359 6.812zm113.84 44.283-27.759 27.759v-71.341h9.158c13.613 0 25.261 10.433 26.036 24.023.421 7.376-2.259 14.383-7.435 19.559z"/><path d="m139.953 291.369c-3.549-1.479-7.597-.677-10.312 2.045s-3.509 6.77-2.021 10.315c.023.056.048.112.072.167l36.616 81.666c1.25 2.788 3.99 4.441 6.86 4.441 1.027 0 2.072-.212 3.069-.659 3.787-1.698 5.479-6.144 3.782-9.93l-6.999-15.614 28.857-28.857 15.554 7.031c3.783 1.711 8.232.031 9.941-3.751 1.709-3.781.029-8.232-3.752-9.941l-81.464-36.823c-.067-.032-.134-.061-.203-.09zm45.288 36.958-20.8 20.8-16.984-37.879z"/><path d="m237.084 304.738c13.337 0 25.876-5.194 35.306-14.625 18.372-18.372 16.685-45.722-4.102-66.51-1.41-1.409-3.32-2.201-5.313-2.201s-3.903.791-5.313 2.201l-17.944 17.945c-2.934 2.934-2.934 7.691 0 10.625 2.934 2.935 7.691 2.934 10.625 0l12.237-12.237c8.348 11.32 12.047 26.689-.816 39.551-6.592 6.592-15.357 10.223-24.68 10.223s-18.088-3.631-24.68-10.223-10.223-15.357-10.223-24.68 3.631-18.088 10.223-24.681c4.947-4.946 11.173-8.26 18.007-9.583 4.074-.789 6.737-4.731 5.949-8.804-.788-4.074-4.73-6.738-8.804-5.949-9.788 1.894-18.702 6.636-25.776 13.71-9.431 9.43-14.625 21.969-14.625 35.306s5.194 25.875 14.625 35.305c9.429 9.433 21.968 14.627 35.304 14.627z"/><path d="m90.607 351.925 11.318-11.318c2.934-2.934 2.934-7.691 0-10.625s-7.691-2.934-10.625 0l-33.128 33.128c-2.934 2.934-2.934 7.691 0 10.625 1.467 1.467 3.39 2.201 5.313 2.201s3.846-.734 5.313-2.201l11.184-11.184 54.673 54.673c1.467 1.467 3.39 2.201 5.313 2.201s3.846-.734 5.313-2.201c2.934-2.934 2.934-7.691 0-10.625z"/></g></g></svg>